# xmcd
#
# Track frame offsets:
#	150
#	20232
#	34044
#	47499
#	62931
#	79039
#	91970
#	106602
#	123739
#	136311
#	152825
#	163750
#	182451
#	197194
#	214172
#	232051
#	249183
#	264806
#	286254
#	301277
#	320262
#	334550
#
# Disc length: 4669 seconds
#
# Revision: 1
# Processed by: cddbd v1.5.2PL0 Copyright (c) Steve Scherf et al.
# Submitted via: audiograbber 1.83.01
#
DISCID=2b123b16
DTITLE=England Dan and John Ford Coley - THe Atlantic Albums  [CD2)
DYEAR=2015
DGENRE=Oldies
TTITLE0=Some Things Don't Come Easy
TTITLE1=If The World Ran Out Of Love Tonight
TTITLE2=You Can't Dance
TTITLE3=Who's Lonely Now
TTITLE4=Hold Me
TTITLE5=We'll Never Have To Say Goodbye Again
TTITLE6=Lovin' Somebody On A Rainy Night
TTITLE7=Beyond The Tears
TTITLE8=Calling For You Again
TTITLE9=Wanting You Desperately
TTITLE10=Just The Two Of Us
TTITLE11=Hollywood Heckle and Jive
TTITLE12=What Can I Do With This Broken Heart
TTITLE13=Another Golden Oldie Night For Wendy
TTITLE14=Broken Hearted Me
TTITLE15=Children Of The Half Light
TTITLE16=Rolling Fever
TTITLE17=Love Is The Answer
TTITLE18=Only A Matter Of Time
TTITLE19=Caught Up In The Middle
TTITLE20=Running After You
TTITLE21=What's Forever For
EXTD=
EXTT0=
EXTT1=
EXTT2=
EXTT3=
EXTT4=
EXTT5=
EXTT6=
EXTT7=
EXTT8=
EXTT9=
EXTT10=
EXTT11=
EXTT12=
EXTT13=
EXTT14=
EXTT15=
EXTT16=
EXTT17=
EXTT18=
EXTT19=
EXTT20=
EXTT21=
PLAYORDER=
